<svg xmlns="http://www.w3.org/2000/svg" viewBox="0 0 869 869"><rect x="130.7" y="468.3" width="80.2" height="8.84" rx="4.4" transform="translate(-319.3 361.1) rotate(-57.3)" fill="#0e2e54"/><path d="M342.1,505.7c-105.4-59.4-210.9,59.4-316.3,0V467.1c105.4,59.4,210.9-59.4,316.3,0Z" transform="translate(0 0)" fill="#2681db"/><path d="M342.1,544.3c-105.4-59.4-210.9,59.4-316.3,0V505.7c105.4,59.4,210.9-59.4,316.3,0Z" transform="translate(0 0)" fill="#1a5896"/><path d="M342.1,582.9c-105.4-59.4-210.9,59.4-316.3,0V544.3c105.4,59.4,210.9-59.4,316.3,0Z" transform="translate(0 0)" fill="#0e2e54"/><g opacity="0.46"><path d="M342.1,505.7c-105.4,53.2-210.9-53.2-316.3,0V467.1c105.4-53.2,210.9,53.3,316.3,0Z" transform="translate(0 0)" fill="#2681db"/><path d="M342.1,544.3c-105.4,53.2-210.9-53.2-316.3,0V505.7c105.4-53.2,210.9,53.2,316.3,0Z" transform="translate(0 0)" fill="#1a5896"/><path d="M342.1,582.9c-105.4,53.2-210.9-53.3-316.3,0V544.3c105.4-53.2,210.9,53.2,316.3,0Z" transform="translate(0 0)" fill="#0e2e54"/></g><path d="M149.2,412.1c-34.1,0-59.5,25.6-59.6,60.1s24.8,61,59.7,61.1,59.5-25.3,59.6-60.6S183.7,412.1,149.2,412.1Zm.1,109.3c-28,0-48.1-20.6-48-49.1s20.5-48.3,48-48.3,48.1,20.7,48,48.7S177.1,521.5,149.3,521.4Z" transform="translate(0 0)" fill="#f9f9f9"/><g opacity="0.15"><path d="M132.6,477.8l7.1-8.7L123.1,468l16.6-1.1-7-8.6,8.9,6.7c.5-5,1-9.7,1.5-15.8l1.6,15.8,9-6.7c-2.9,3.4-4.9,5.9-7.1,8.6l16.6,1.1-16.6,1.1,7,8.6-8.9-6.7c-.5,4.9-1,9.6-1.6,15.8-.5-6.2-1-10.8-1.5-15.8Zm16.8-4.2-4.1-5.1,7.3-.5-7.3-.6,4-5-5.2,3.8c-.3-2.9-.6-5.5-1-9.4-.4,4-.6,6.5-.9,9.4l-4.8-3.4,3.6,4.7-7.3.5,7.3.6-4.1,5,5.3-3.8.9,9.6c.4-4.1.7-6.8,1-9.6Z" transform="translate(0 0)" opacity="0.26"/><path d="M120.1,445.4l9.2-2-2.2-4.1,4.4,2c.7-2.8,1.4-5.4,2.1-8.6l2.1,8.6,4.4-2-2.1,4.1,9.2,2-9.2,1.9,2.1,4.1-4.4-1.9-2.1,8.6-2-8.7-4.4,2,2.1-4.1Zm3.2,0,7,1.5-1.5,3.1,3.2-1.5,1.6,6.5,1.6-6.5,3.2,1.4-1.4-3,6.9-1.5-6.9-1.5,1.4-3-3.2,1.4-1.6-6.5-1.6,6.5-3.1-1.4,1.4,3Z" transform="translate(0 0)" fill="#b51a6f"/><path d="M158.2,458.7l-7.4-7.1,7.5-7.3,7.4,7.4Zm-5-9.1h10.2l-7.4,6.6-3.6-5.5,6.8,6.9-5.9-4,7.1-6.7-.2,9.5Z" transform="translate(0 0)"/><path d="M150.9,480.6l6.7-4.6,6.6,4.7c-.7,2-1.8,5.2-2.6,7.3h-8.3Zm1.6.6c.6,1.6,1.3,4,1.8,5.5h6.4l1.9-5.5-5-3.6Z" transform="translate(0 0)" opacity="0.17"/><path d="M113,460.8l6.7-6.4,6.7,6.5-6.8,6.3Zm6.6-.9-1.1.9c-.1-.1,1.4,1.3,1,1l1.1-.9Z" transform="translate(0 0)" opacity="0.56"/></g><path d="M434.5,0C232.7,0,63,137.6,14.2,324A435.2,435.2,0,0,0,.1,425.5c-.1,3-.1,6-.1,9s0,6,.1,9A437.7,437.7,0,0,0,14.2,545.2C63.2,731.5,232.8,869,434.5,869c199,0,366.7-133.7,418.2-316.2a425.5,425.5,0,0,0,12.4-60,430.3,430.3,0,0,0,3.9-58.3C869,194.5,674.5,0,434.5,0ZM89.6,472.2c.1-34.5,25.5-60.1,59.6-60.1s59.9,25.8,59.7,60.6-25.1,60.6-59.6,60.6S89.5,507.7,89.6,472.2Z" transform="translate(0 0)" fill="#288adb"/><path d="M249.8,364.9c0-19.5.1-39,.1-58.4,0-3.5-1.2-4.1-4.3-4-10.6.1-21.3.3-31.9-.1-4.3-.1-4.9,1.5-4.8,5.1.1,19.2.1,38.3,0,57.4V373c.1,10.1,0,20.2,0,31.5-28.2-37.6-80.2-37.5-109.6-20.4-31.2,18.3-48.4,45.7-50.4,82-.1,2.5-.2,4.9-.2,7.4,0,31.8,12.1,58.5,37.7,79.2,29.6,23.8,74.2,26.2,104,5.9,6.8-4.7,12.5-10.6,18.5-18.1,0,8.2.3,15.2-.1,22.1-.2,4.1,1.3,4.9,5.1,4.8q15.8-.3,31.5,0c3.3.1,4.5-.6,4.5-4.3Q249.8,464.1,249.8,364.9ZM149.3,533.3c-34.9-.1-59.8-25.6-59.7-61.1s25.5-60.1,59.6-60.1,59.9,25.8,59.7,60.6S183.8,533.3,149.3,533.3Z" transform="translate(0 0)" fill="#0e2e54"/><path d="M404.8,490H335.4c-6,0-6,0-4.3,5.6,7.1,22,22.9,33.9,45.1,37.9a76.3,76.3,0,0,0,31.2-.7c11.9-2.9,21.8-8.9,29.3-18.5,1.7-2.2,2.8-2.9,5.5-1.2,9.1,5.5,18.3,10.8,27.6,16,2.6,1.5,2.6,2.5.9,4.8-14.1,19.5-32.9,31.6-56.6,35.9-26.9,4.9-53.2,3.2-77.5-10.2-29.8-16.3-45.8-42.1-49-75.7-2.6-27.5,3.3-52.6,20.7-74.4,21.1-26.3,49-36.8,82.1-36.3,53.9.9,93.7,49,91.3,103-.6,13.8-.4,13.8-14,13.8Zm35.5-33.3c-4.5-27.5-23.7-45-50.8-46.3-29.3-1.5-51.8,14.5-59.1,41.5-1,4-.5,4.9,3.8,4.9H440.3Z" transform="translate(0 0)" fill="#0e2e53"/><path d="M793.2,572.2c-21.7-.2-43.4-5.9-60.8-23.1A69.3,69.3,0,0,1,719.3,531c-1.1-2.2-1.1-3.3,1.3-4.6,10.1-5.7,20.1-11.7,30.1-17.6,1.4-.8,2.5-1.3,3.3.8,8.8,23.7,32,26.8,51.2,24.5a38.6,38.6,0,0,0,10.6-2.8c12.1-4.7,16.7-21.9,3.6-30.8-9.4-6.4-20.1-9.1-30.9-11.9a198.2,198.2,0,0,1-36.3-13.5c-36.4-17.2-30.9-63.7-11.9-81.7,14.9-14,32.7-19.9,52.6-20.1,27.8-.3,51.1,9,67.7,32.3,4.6,6.6,4.6,6.7-2.4,10.6s-16.8,9.3-25.2,14.1c-2,1.2-2.7,1.1-4-1.1A39.4,39.4,0,0,0,779.7,413c-8.4,3.5-12.5,9.4-12.5,17.4s4.2,11.2,9.7,14.5c10,5.9,21,9,32.2,11.7a158.4,158.4,0,0,1,34.4,12.8c34.5,17.4,31.7,67.5,5.6,86.3C832.9,567.5,814.8,572,793.2,572.2Z" transform="translate(0 0)" fill="#0e2e54"/><path d="M623.4,492.1c0-23.1-.2-46.3.1-69.4,0-4.6-1.4-5.5-5.5-5.3-6.5.4-13,0-19.5.2-2.9.1-4.1-.5-4.1-3.8.3-10.7.3-21.3.1-32-.1-3.1,1-3.9,3.9-3.8,6.5.2,13-.3,19.5.1,4.8.4,5.6-1.5,5.6-5.8-.1-12.5,1.8-24.8,7-36.4,10.8-24.2,30.8-35.2,56.1-38a108.6,108.6,0,0,1,18.9-.6c2.5.2,3.5.9,3.5,3.6q-.3,16.2,0,32.4c.1,3.1-1.1,3.6-3.8,3.4a56.1,56.1,0,0,0-17.3,1.4c-14.5,3.8-23,15.2-23.6,32-.3,7.9-.3,7.9,7.6,7.9,10.8,0,21.6.2,32.4-.1,3.9-.1,4.8,1.2,4.7,4.8-.2,10.2-.2,20.3,0,30.5.1,3.6-1.1,4.5-4.5,4.4-11.8-.2-23.7.1-35.5-.2-4-.1-4.8,1.1-4.8,5,.1,46.4,0,92.9.2,139.3,0,4.5-1,5.9-5.7,5.8-10.2-.4-20.3-.3-30.5-.1-3.8.1-5-.8-4.9-4.8C623.5,539.1,623.4,515.6,623.4,492.1Z" transform="translate(0 0)" fill="#0e2e54"/><path d="M494.6,427.5c0-28.6.1-57.3,0-85.9-.1-3.1.6-4.7,3.8-5.6,11.1-3,22-6.3,33-9.7,3.3-1,4.2-.5,4.2,3.1-.2,14.7,0,29.3-.2,44,0,3.6.7,4.8,4.6,4.7,12.7-.2,25.3,0,38-.2,3.3,0,4.6.6,4.5,4.3q-.3,15.8,0,31.5c.1,3.1-.9,3.9-3.9,3.9-13-.2-26,0-39-.1-3.2-.1-4.2.7-4.2,4,.2,29.2,0,58.3.1,87.4.1,14.4,6.7,21.2,21,21.7,7.3.3,14.6.2,22,0,2.8,0,4.1.2,4,3.6-.2,10-.1,20-.1,30,0,1.6.3,3.2-2.3,3.4-17.3,1.6-34.6,2.6-51.5-2.3-18.7-5.4-28.4-18.6-32.1-37a114.3,114.3,0,0,1-1.9-21.9Z" transform="translate(0 0)" fill="#0e2e54"/><path d="M.1,434.2Q.1,343,0,251.9c0-4.1,1-5.3,5.2-5.2,9,.3,9,.1,9,9.2q0,180.6.1,361.1c0,4.5-1,5.9-5.6,5.7C.1,622.3.1,622.6.1,614Z" transform="translate(0 0)" fill="#102e52"/></svg>