<svg xmlns="http://www.w3.org/2000/svg" viewBox="0 0 329.1 78.4"><path d="M278.1,74.6V2.6c10.9.8,21.6.6,32.1,2.5s13.9,8.5,15.3,17.6-.6,16.9-9.3,21.8c-.4.2-.7.6-1.3,1,4.7,9.6,9.3,19.2,14.2,29.4-7,0-13.3.1-19.6-.1-.8,0-2-1.5-2.5-2.6-2.9-7.5-5.7-15.1-8.6-22.6-.1-.5-.3-.8-1.1-1.2V74.6Zm19.6-38.3c3.6.3,6-1.1,7.5-4s1.9-6.7-.2-9.8-4.2-3.1-7.3-2.7Z" fill="#f4f4f4"/><path d="M273.8,74.8h-20c-.2-1.1-.5-2.1-.7-3-1.1-6-1.1-6-7.3-6h-6.4l-1.7,8.9H217.6c2.1-8.8,4.1-17.4,6.2-25.9,3.4-14.2,6.9-28.3,10.2-42.5.5-2.4,1.5-3.1,4-3.1,6.8.2,13.6.1,20.6.1C263.7,27.2,268.7,50.7,273.8,74.8ZM246.5,25h-.4c-1.4,8.3-2.7,16.6-4,25.1h7.6C248.6,41.6,247.6,33.3,246.5,25Z" fill="#f4f4f4"/><path d="M19.9,74.7H0c1.7-7.1,3.3-14,5-20.9C8.8,38.1,12.7,22.4,16.3,6.6c.6-2.7,1.8-3.5,4.5-3.4,6.6.2,13.2.1,20.2.1,5.1,23.8,10.1,47.4,15.3,71.6-6.6,0-12.7.1-18.7-.1-.7-.1-1.7-1.8-1.9-2.9-1.2-6-1.2-6.1-7-6.1s-6.7,0-8.2,6.9A13.6,13.6,0,0,1,19.9,74.7Zm4.6-24.6h7.6C31,41.3,30,32.9,28.9,24.5h-.4Z" fill="#f4f4f4"/><path d="M174.1,47H159.6V57.7h16.3v17H140.2V3.6h35.6V20.2H159.6V30.3h14.5Z" fill="#f4f4f4"/><path d="M180.5,3.5h19.1V57.6H214V74.7H180.5Z" fill="#f4f4f4"/><path d="M67.4,9.2l8.9-9,19,19.5L113.9,0l9.2,9.5c-7.6,7.8-15.5,16-23.7,24a5.4,5.4,0,0,1-7.8-.1C83.4,25.5,75.6,17.4,67.4,9.2Z" fill="#f4f4f4"/><path d="M134.9,58.1,125,68c-2-2.3-3.7-4.7-5.8-6.8-5.5-5.6-11.1-11-16.6-16.6-3.8-3.8-3.7-7.2,0-10.9l22.9-23,8.6,9.4L115.2,38.5Z" fill="#f4f4f4"/><path d="M65.6,67.3c-3-3.2-5.7-6.2-8.7-9.3l19-18.2L56.2,21.1l9.6-9.7C73.7,19.2,82,27.1,89.9,35.3c2.4,2.4,2.1,5.7-.3,8.1C81.8,51.4,73.7,59.2,65.6,67.3Z" fill="#f4f4f4"/><path d="M123.4,69.3l-8.8,8.8L95.2,59.6,76.8,78.4l-9.6-9.3L82,55.4c2.9-2.7,5.8-5.6,8.8-8.3s6.4-2.8,9-.3C107.8,54.2,115.6,61.8,123.4,69.3Z" fill="#f4f4f4"/></svg>