<svg width="18" height="18" viewBox="0 0 18 18" fill="none" xmlns="http://www.w3.org/2000/svg">
<path fill-rule="evenodd" clip-rule="evenodd" d="M6.55225 7.51849C6.55225 6.42406 7.43944 5.53687 8.53387 5.53687H10.9812C11.2573 5.53687 11.4812 5.76072 11.4812 6.03687C11.4812 6.31301 11.2573 6.53687 10.9812 6.53687H8.53387C7.99173 6.53687 7.55225 6.97635 7.55225 7.51849C7.55225 8.06063 7.99173 8.50012 8.53387 8.50012H9.82555C10.9199 8.50012 11.8072 9.3873 11.8072 10.4817C11.8072 11.5761 10.9199 12.4634 9.82555 12.4634H7.37823C7.10208 12.4634 6.87823 12.2395 6.87823 11.9634C6.87823 11.6873 7.10208 11.4634 7.37823 11.4634H9.82555C10.3676 11.4634 10.8072 11.0239 10.8072 10.4817C10.8072 9.93963 10.3677 9.50012 9.82555 9.50012H8.53387C7.43944 9.50012 6.55225 8.6129 6.55225 7.51849Z" fill="white"/>
<path fill-rule="evenodd" clip-rule="evenodd" d="M9.17969 4.54907C9.45583 4.54907 9.67969 4.77293 9.67969 5.04907V6.03682C9.67969 6.31296 9.45583 6.53682 9.17969 6.53682C8.90355 6.53682 8.67969 6.31296 8.67969 6.03682V5.04907C8.67969 4.77293 8.90355 4.54907 9.17969 4.54907Z" fill="white"/>
<path fill-rule="evenodd" clip-rule="evenodd" d="M9.17969 11.4634C9.45583 11.4634 9.67969 11.6872 9.67969 11.9634V12.9511C9.67969 13.2272 9.45583 13.4511 9.17969 13.4511C8.90355 13.4511 8.67969 13.2272 8.67969 12.9511V11.9634C8.67969 11.6872 8.90355 11.4634 9.17969 11.4634Z" fill="white"/>
<path fill-rule="evenodd" clip-rule="evenodd" d="M7.50739 2.1199C7.57924 2.38653 7.42135 2.66092 7.15472 2.73278C4.39111 3.47755 2.35791 6.00198 2.35791 9C2.35791 11.998 4.39112 14.5225 7.15472 15.2672C7.42135 15.3391 7.57924 15.6135 7.50739 15.8801C7.43553 16.1467 7.16113 16.3046 6.8945 16.2328C3.70548 15.3734 1.35791 12.4614 1.35791 9C1.35791 5.53853 3.70549 2.62665 6.8945 1.76723C7.16113 1.69537 7.43553 1.85327 7.50739 2.1199Z" fill="white"/>
<path fill-rule="evenodd" clip-rule="evenodd" d="M10.4924 2.1199C10.5643 1.85327 10.8387 1.69537 11.1053 1.76723C14.2943 2.62665 16.6419 5.53853 16.6419 9C16.6419 12.4614 14.2943 15.3734 11.1053 16.2328C10.8387 16.3046 10.5643 16.1467 10.4924 15.8801C10.4206 15.6135 10.5785 15.3391 10.8451 15.2672C13.6087 14.5225 15.6419 11.998 15.6419 9C15.6419 6.00198 13.6087 3.47755 10.8451 2.73278C10.5785 2.66092 10.4206 2.38653 10.4924 2.1199Z" fill="white"/>
</svg>
