<svg xmlns="http://www.w3.org/2000/svg" viewBox="0 0 869 376"><path d="M209.4,158.2V126.7c0-21.8.1-43.6-.1-65.5,0-3.6.6-5.2,4.8-5.1,10.7.4,21.3.2,32,.1,3-.1,4.2.5,4.2,4q-.2,128.3,0,256.6c0,3.7-1.1,4.4-4.5,4.3q-15.7-.3-31.5,0c-3.8.1-5.2-.7-5-4.8.4-6.9.1-13.8.1-22.1-6.1,7.5-11.7,13.4-18.6,18.1-29.8,20.3-74.4,17.9-104-5.9-27.5-22.3-39.4-51.5-37.4-86.5s19.1-63.8,50.4-82.1C129.1,120.7,181.1,120.6,209.4,158.2ZM90,226c-.1,35.4,24.9,60.9,59.7,61s59.5-25.3,59.7-60.6-25.3-60.6-59.7-60.6S90.1,191.4,90,226Z" transform="translate(-0.4 -0.4)" fill="#0e2e54"/><path d="M405.2,243.7H335.8c-6,0-6,0-4.2,5.6,7,22,22.8,33.9,45,38a76.3,76.3,0,0,0,31.2-.8c11.9-2.9,21.8-8.9,29.4-18.5,1.7-2.2,2.8-2.9,5.5-1.2,9,5.6,18.3,10.8,27.5,16,2.6,1.5,2.7,2.5,1,4.8-14.2,19.5-33,31.6-56.7,35.9-26.8,4.9-53.1,3.2-77.5-10.2-29.8-16.3-45.7-42.1-49-75.7-2.6-27.4,3.4-52.6,20.8-74.4,21-26.3,48.9-36.8,82-36.3,54,.9,93.8,49,91.3,103-.6,13.8-.4,13.8-13.9,13.8Zm35.6-33.3c-4.5-27.5-23.8-45-50.8-46.3-29.4-1.5-51.9,14.5-59.1,41.5-1.1,4-.5,5,3.7,4.9H440.8Z" transform="translate(-0.4 -0.4)" fill="#0e2e53"/><path d="M793.6,325.9c-21.6-.2-43.3-5.9-60.8-23a71.1,71.1,0,0,1-13-18.2c-1.2-2.1-1.2-3.3,1.2-4.6,10.1-5.7,20.1-11.7,30.1-17.6,1.5-.8,2.6-1.3,3.4.8,8.8,23.7,31.9,26.8,51.2,24.5a42.7,42.7,0,0,0,10.5-2.7c12.1-4.8,16.8-22,3.7-30.9-9.5-6.3-20.2-9.1-31-11.9a208.4,208.4,0,0,1-36.3-13.4c-36.4-17.3-30.9-63.8-11.9-81.8,14.9-14,32.7-19.9,52.7-20.1,27.7-.3,51.1,9,67.6,32.3,4.7,6.6,4.6,6.7-2.3,10.6-8.4,4.7-16.9,9.3-25.2,14.2-2,1.1-2.8,1-4.1-1.2a39.4,39.4,0,0,0-49.3-16.2c-8.3,3.5-12.5,9.4-12.5,17.4s4.2,11.2,9.8,14.5c9.9,5.9,21,9,32.1,11.7a163.8,163.8,0,0,1,34.4,12.8c34.5,17.4,31.7,67.5,5.6,86.3C833.3,321.2,815.2,325.7,793.6,325.9Z" transform="translate(-0.4 -0.4)" fill="#0e2e54"/><path d="M623.8,245.8c0-23.1-.2-46.2.1-69.4.1-4.6-1.3-5.5-5.5-5.3-6.5.4-13,0-19.5.2-2.9.1-4.1-.5-4-3.8.2-10.6.2-21.3,0-32-.1-3.1,1-3.9,4-3.8,6.5.2,13-.3,19.4.2s5.6-1.6,5.6-5.8c0-12.6,1.8-24.9,7-36.5,10.9-24.2,30.8-35.2,56.1-38a109.5,109.5,0,0,1,19-.6c2.4.2,3.5.9,3.4,3.6-.1,10.8-.1,21.6,0,32.5.1,3-1,3.5-3.8,3.3a56.1,56.1,0,0,0-17.3,1.4c-14.5,3.8-23,15.3-23.5,32-.3,7.9-.3,7.9,7.5,7.9,10.8,0,21.7.2,32.5-.1,3.8-.1,4.7,1.2,4.6,4.8-.2,10.2-.2,20.4,0,30.5.1,3.6-1.1,4.5-4.5,4.4-11.8-.2-23.6.1-35.4-.2-4.1-.1-4.9,1.1-4.9,5,.1,46.4,0,92.9.2,139.3,0,4.5-1,5.9-5.7,5.8-10.1-.4-20.3-.3-30.4-.1-3.9.1-5-.8-5-4.8C623.9,292.8,623.8,269.3,623.8,245.8Z" transform="translate(-0.4 -0.4)" fill="#0e2e54"/><path d="M495.1,181.2c0-28.6,0-57.3-.1-85.9,0-3.1.6-4.7,3.9-5.6,11-3,22-6.3,32.9-9.7,3.3-1,4.3-.5,4.2,3.1-.2,14.7.1,29.3-.2,44,0,3.6.8,4.8,4.6,4.7,12.7-.2,25.4,0,38-.1,3.3-.1,4.6.6,4.6,4.2-.3,10.5-.2,21-.1,31.5.1,3.1-.8,3.9-3.9,3.9-13-.2-26,0-38.9-.1-3.3-.1-4.3.7-4.2,4.1.1,29.1,0,58.2.1,87.4,0,14.3,6.6,21.1,20.9,21.6,7.3.3,14.7.2,22,0,2.8,0,4.1.2,4.1,3.6-.3,10-.1,20-.1,30,0,1.6.2,3.2-2.4,3.4-17.3,1.6-34.5,2.6-51.5-2.3-18.6-5.4-28.4-18.6-32-37a114.3,114.3,0,0,1-1.9-21.9Z" transform="translate(-0.4 -0.4)" fill="#0e2e54"/><path d="M.5,187.9C.5,127.1.6,66.4.4,5.6.4,1.5,1.5.3,5.6.4c9,.3,9,.1,9,9.2q0,180.6.1,361.1c0,4.5-.9,5.9-5.6,5.7-8.6-.4-8.6-.1-8.6-8.7Z" transform="translate(-0.4 -0.4)" fill="#102e52"/></svg>